<mxfile host="drawio-plugin" modified="2023-04-21T14:55:36.022Z" agent="5.0 (Windows NT 6.2; Win64; x64) AppleWebKit/537.36 (KHTML, like Gecko) Chrome/104.0.5112.102 Safari/537.36" etag="pYQC1gzmVytJw5vRBDic" version="20.5.3" type="embed"><diagram name="Pagina-1" id="oivzZAWDVDsFeMJWxOv2"><mxGraphModel dx="721" dy="662" grid="1" gridSize="10" guides="1" tooltips="1" connect="1" arrows="1" fold="1" page="1" pageScale="1" pageWidth="2500" pageHeight="1000" background="#F4F1DE" math="0" shadow="0"><root><mxCell id="0"/><mxCell id="1" parent="0"/><mxCell id="JPFOaD2VGka_14Fi3roQ-51" value="" style="ellipse;whiteSpace=wrap;html=1;fontSize=12;fillColor=#F2CC8F;strokeColor=#E07A5F;fontColor=#393C56;" parent="1" vertex="1"><mxGeometry x="2055" y="645" width="130" height="90" as="geometry"/></mxCell><mxCell id="JPFOaD2VGka_14Fi3roQ-1" value="choose name" style="ellipse;whiteSpace=wrap;html=1;fillColor=#F2CC8F;strokeColor=#E07A5F;fontColor=#393C56;" parent="1" vertex="1"><mxGeometry x="140" y="535" width="120" height="80" as="geometry"/></mxCell><mxCell id="JPFOaD2VGka_14Fi3roQ-3" value="run client" style="text;html=1;align=center;verticalAlign=middle;resizable=0;points=[];autosize=1;strokeColor=none;fillColor=none;rotation=0;fontColor=#393C56;" parent="1" vertex="1"><mxGeometry x="130" y="495" width="70" height="30" as="geometry"/></mxCell><mxCell id="JPFOaD2VGka_14Fi3roQ-4" value="" style="endArrow=classic;html=1;rounded=0;exitX=1.017;exitY=0.625;exitDx=0;exitDy=0;exitPerimeter=0;labelBackgroundColor=#F4F1DE;strokeColor=#E07A5F;fontColor=#393C56;" parent="1" source="JPFOaD2VGka_14Fi3roQ-1" target="JPFOaD2VGka_14Fi3roQ-5" edge="1"><mxGeometry width="50" height="50" relative="1" as="geometry"><mxPoint x="590" y="775" as="sourcePoint"/><mxPoint x="370" y="585" as="targetPoint"/></mxGeometry></mxCell><mxCell id="JPFOaD2VGka_14Fi3roQ-5" value="wait turn" style="ellipse;whiteSpace=wrap;html=1;fillColor=#F2CC8F;strokeColor=#E07A5F;fontColor=#393C56;" parent="1" vertex="1"><mxGeometry x="420" y="545" width="120" height="80" as="geometry"/></mxCell><mxCell id="JPFOaD2VGka_14Fi3roQ-6" value="name accepted" style="text;html=1;align=center;verticalAlign=middle;resizable=0;points=[];autosize=1;strokeColor=none;fillColor=none;fontColor=#393C56;" parent="1" vertex="1"><mxGeometry x="280" y="545" width="110" height="30" as="geometry"/></mxCell><mxCell id="JPFOaD2VGka_14Fi3roQ-7" value="" style="endArrow=classic;html=1;rounded=0;exitX=0.983;exitY=0.6;exitDx=0;exitDy=0;exitPerimeter=0;entryX=0.392;entryY=1.05;entryDx=0;entryDy=0;entryPerimeter=0;labelBackgroundColor=#F4F1DE;strokeColor=#E07A5F;fontColor=#393C56;" parent="1" source="JPFOaD2VGka_14Fi3roQ-5" target="JPFOaD2VGka_14Fi3roQ-5" edge="1"><mxGeometry width="50" height="50" relative="1" as="geometry"><mxPoint x="580" y="775" as="sourcePoint"/><mxPoint x="430" y="675" as="targetPoint"/><Array as="points"><mxPoint x="538" y="675"/><mxPoint x="467" y="675"/></Array></mxGeometry></mxCell><mxCell id="JPFOaD2VGka_14Fi3roQ-8" value="update state" style="text;html=1;strokeColor=none;fillColor=none;align=center;verticalAlign=middle;whiteSpace=wrap;rounded=0;fontColor=#393C56;" parent="1" vertex="1"><mxGeometry x="470" y="685" width="60" height="30" as="geometry"/></mxCell><mxCell id="JPFOaD2VGka_14Fi3roQ-9" value="" style="endArrow=classic;html=1;rounded=0;exitX=1;exitY=0.5;exitDx=0;exitDy=0;labelBackgroundColor=#F4F1DE;strokeColor=#E07A5F;fontColor=#393C56;" parent="1" source="JPFOaD2VGka_14Fi3roQ-5" edge="1"><mxGeometry width="50" height="50" relative="1" as="geometry"><mxPoint x="580" y="755" as="sourcePoint"/><mxPoint x="660" y="585" as="targetPoint"/></mxGeometry></mxCell><mxCell id="JPFOaD2VGka_14Fi3roQ-10" value="start turn" style="text;html=1;align=center;verticalAlign=middle;resizable=0;points=[];autosize=1;strokeColor=none;fillColor=none;fontColor=#393C56;" parent="1" vertex="1"><mxGeometry x="560" y="555" width="70" height="30" as="geometry"/></mxCell><mxCell id="JPFOaD2VGka_14Fi3roQ-11" value="wait move" style="ellipse;whiteSpace=wrap;html=1;fillColor=#F2CC8F;strokeColor=#E07A5F;fontColor=#393C56;" parent="1" vertex="1"><mxGeometry x="660" y="545" width="120" height="80" as="geometry"/></mxCell><mxCell id="JPFOaD2VGka_14Fi3roQ-12" value="" style="endArrow=classic;html=1;rounded=0;exitX=1;exitY=0.5;exitDx=0;exitDy=0;labelBackgroundColor=#F4F1DE;strokeColor=#E07A5F;fontColor=#393C56;" parent="1" source="JPFOaD2VGka_14Fi3roQ-11" edge="1"><mxGeometry width="50" height="50" relative="1" as="geometry"><mxPoint x="670" y="755" as="sourcePoint"/><mxPoint x="940" y="585" as="targetPoint"/></mxGeometry></mxCell><mxCell id="JPFOaD2VGka_14Fi3roQ-13" value="move valid" style="text;html=1;align=center;verticalAlign=middle;resizable=0;points=[];autosize=1;strokeColor=none;fillColor=none;fontColor=#393C56;" parent="1" vertex="1"><mxGeometry x="810" y="555" width="80" height="30" as="geometry"/></mxCell><mxCell id="JPFOaD2VGka_14Fi3roQ-14" value="" style="endArrow=classic;html=1;rounded=0;exitX=0.983;exitY=0.6;exitDx=0;exitDy=0;exitPerimeter=0;entryX=0.392;entryY=1.05;entryDx=0;entryDy=0;entryPerimeter=0;labelBackgroundColor=#F4F1DE;strokeColor=#E07A5F;fontColor=#393C56;" parent="1" edge="1"><mxGeometry width="50" height="50" relative="1" as="geometry"><mxPoint x="779.96" y="595" as="sourcePoint"/><mxPoint x="709.04" y="631" as="targetPoint"/><Array as="points"><mxPoint x="780" y="677"/><mxPoint x="709" y="677"/></Array></mxGeometry></mxCell><mxCell id="JPFOaD2VGka_14Fi3roQ-15" value="move invalid" style="text;html=1;align=center;verticalAlign=middle;resizable=0;points=[];autosize=1;strokeColor=none;fillColor=none;fontColor=#393C56;" parent="1" vertex="1"><mxGeometry x="690" y="680" width="90" height="30" as="geometry"/></mxCell><mxCell id="JPFOaD2VGka_14Fi3roQ-16" value="" style="endArrow=classic;html=1;rounded=0;entryX=0;entryY=0;entryDx=0;entryDy=0;labelBackgroundColor=#F4F1DE;strokeColor=#E07A5F;fontColor=#393C56;" parent="1" target="JPFOaD2VGka_14Fi3roQ-1" edge="1"><mxGeometry width="50" height="50" relative="1" as="geometry"><mxPoint x="120" y="495" as="sourcePoint"/><mxPoint x="250" y="565" as="targetPoint"/></mxGeometry></mxCell><mxCell id="JPFOaD2VGka_14Fi3roQ-17" value="modify game state" style="ellipse;whiteSpace=wrap;html=1;fillColor=#F2CC8F;strokeColor=#E07A5F;fontColor=#393C56;" parent="1" vertex="1"><mxGeometry x="940" y="545" width="120" height="80" as="geometry"/></mxCell><mxCell id="JPFOaD2VGka_14Fi3roQ-18" value="" style="endArrow=classic;html=1;rounded=0;exitX=1;exitY=0.5;exitDx=0;exitDy=0;labelBackgroundColor=#F4F1DE;strokeColor=#E07A5F;fontColor=#393C56;" parent="1" source="JPFOaD2VGka_14Fi3roQ-17" edge="1"><mxGeometry width="50" height="50" relative="1" as="geometry"><mxPoint x="1040" y="615" as="sourcePoint"/><mxPoint x="1160" y="585" as="targetPoint"/></mxGeometry></mxCell><mxCell id="JPFOaD2VGka_14Fi3roQ-20" value="wait timer" style="ellipse;whiteSpace=wrap;html=1;fillColor=#F2CC8F;strokeColor=#E07A5F;fontColor=#393C56;" parent="1" vertex="1"><mxGeometry x="1160" y="545" width="120" height="80" as="geometry"/></mxCell><mxCell id="JPFOaD2VGka_14Fi3roQ-21" value="" style="endArrow=classic;html=1;rounded=0;labelBackgroundColor=#F4F1DE;strokeColor=#E07A5F;fontColor=#393C56;" parent="1" edge="1"><mxGeometry width="50" height="50" relative="1" as="geometry"><mxPoint x="1270" y="565" as="sourcePoint"/><mxPoint x="1470" y="475" as="targetPoint"/><Array as="points"><mxPoint x="1280" y="475"/></Array></mxGeometry></mxCell><mxCell id="JPFOaD2VGka_14Fi3roQ-22" value="" style="endArrow=classic;html=1;rounded=0;exitX=0.908;exitY=0.763;exitDx=0;exitDy=0;exitPerimeter=0;labelBackgroundColor=#F4F1DE;strokeColor=#E07A5F;fontColor=#393C56;" parent="1" source="JPFOaD2VGka_14Fi3roQ-20" edge="1"><mxGeometry width="50" height="50" relative="1" as="geometry"><mxPoint x="1250" y="615" as="sourcePoint"/><mxPoint x="1480" y="675" as="targetPoint"/><Array as="points"><mxPoint x="1290" y="675"/></Array></mxGeometry></mxCell><mxCell id="JPFOaD2VGka_14Fi3roQ-23" value="library not full" style="text;html=1;align=center;verticalAlign=middle;resizable=0;points=[];autosize=1;strokeColor=none;fillColor=none;fontColor=#393C56;" parent="1" vertex="1"><mxGeometry x="1320" y="680" width="90" height="30" as="geometry"/></mxCell><mxCell id="JPFOaD2VGka_14Fi3roQ-24" value="library full" style="text;html=1;align=center;verticalAlign=middle;resizable=0;points=[];autosize=1;strokeColor=none;fillColor=none;fontColor=#393C56;" parent="1" vertex="1"><mxGeometry x="1320" y="440" width="70" height="30" as="geometry"/></mxCell><mxCell id="JPFOaD2VGka_14Fi3roQ-26" value="end game&lt;br&gt;function" style="ellipse;whiteSpace=wrap;html=1;fillColor=#F2CC8F;strokeColor=#E07A5F;fontColor=#393C56;" parent="1" vertex="1"><mxGeometry x="1470" y="440" width="120" height="80" as="geometry"/></mxCell><mxCell id="JPFOaD2VGka_14Fi3roQ-27" value="end turn&lt;br&gt;function" style="ellipse;whiteSpace=wrap;html=1;fillColor=#F2CC8F;strokeColor=#E07A5F;fontColor=#393C56;" parent="1" vertex="1"><mxGeometry x="1480" y="630" width="120" height="80" as="geometry"/></mxCell><mxCell id="JPFOaD2VGka_14Fi3roQ-28" value="" style="endArrow=classic;html=1;rounded=0;exitX=0.5;exitY=1;exitDx=0;exitDy=0;entryX=0;entryY=1;entryDx=0;entryDy=0;labelBackgroundColor=#F4F1DE;strokeColor=#E07A5F;fontColor=#393C56;" parent="1" source="JPFOaD2VGka_14Fi3roQ-27" target="JPFOaD2VGka_14Fi3roQ-5" edge="1"><mxGeometry width="50" height="50" relative="1" as="geometry"><mxPoint x="1200" y="685" as="sourcePoint"/><mxPoint x="410" y="635" as="targetPoint"/><Array as="points"><mxPoint x="1540" y="865"/><mxPoint x="440" y="865"/></Array></mxGeometry></mxCell><mxCell id="JPFOaD2VGka_14Fi3roQ-29" value="&lt;font style=&quot;font-size: 30px;&quot;&gt;Server&lt;/font&gt;" style="ellipse;shape=cloud;whiteSpace=wrap;html=1;fillColor=#F2CC8F;strokeColor=#E07A5F;fontColor=#393C56;" parent="1" vertex="1"><mxGeometry x="590" y="80" width="700" height="260" as="geometry"/></mxCell><mxCell id="JPFOaD2VGka_14Fi3roQ-32" value="" style="endArrow=classic;html=1;rounded=0;fontSize=12;exitX=0.063;exitY=0.454;exitDx=0;exitDy=0;exitPerimeter=0;dashed=1;labelBackgroundColor=#F4F1DE;strokeColor=#E07A5F;fontColor=#393C56;" parent="1" source="JPFOaD2VGka_14Fi3roQ-29" target="JPFOaD2VGka_14Fi3roQ-5" edge="1"><mxGeometry width="50" height="50" relative="1" as="geometry"><mxPoint x="900" y="480" as="sourcePoint"/><mxPoint x="950" y="430" as="targetPoint"/><Array as="points"><mxPoint x="480" y="198"/></Array></mxGeometry></mxCell><mxCell id="JPFOaD2VGka_14Fi3roQ-33" value="" style="endArrow=classic;html=1;rounded=0;dashed=1;fontSize=12;exitX=0.093;exitY=0.665;exitDx=0;exitDy=0;exitPerimeter=0;entryX=0.783;entryY=0.088;entryDx=0;entryDy=0;entryPerimeter=0;labelBackgroundColor=#F4F1DE;strokeColor=#E07A5F;fontColor=#393C56;" parent="1" source="JPFOaD2VGka_14Fi3roQ-29" target="JPFOaD2VGka_14Fi3roQ-5" edge="1"><mxGeometry width="50" height="50" relative="1" as="geometry"><mxPoint x="850" y="470" as="sourcePoint"/><mxPoint x="900" y="420" as="targetPoint"/><Array as="points"><mxPoint x="514" y="253"/></Array></mxGeometry></mxCell><mxCell id="JPFOaD2VGka_14Fi3roQ-34" value="start turn msg" style="text;html=1;align=center;verticalAlign=middle;resizable=0;points=[];autosize=1;strokeColor=none;fillColor=none;fontSize=12;fontColor=#393C56;" parent="1" vertex="1"><mxGeometry x="490" y="170" width="100" height="30" as="geometry"/></mxCell><mxCell id="JPFOaD2VGka_14Fi3roQ-35" value="update game msg" style="text;html=1;align=center;verticalAlign=middle;resizable=0;points=[];autosize=1;strokeColor=none;fillColor=none;fontSize=12;fontColor=#393C56;" parent="1" vertex="1"><mxGeometry x="520" y="260" width="120" height="30" as="geometry"/></mxCell><mxCell id="JPFOaD2VGka_14Fi3roQ-36" value="" style="endArrow=classic;html=1;rounded=0;dashed=1;fontSize=12;exitX=0.3;exitY=0.038;exitDx=0;exitDy=0;exitPerimeter=0;entryX=0.55;entryY=0.95;entryDx=0;entryDy=0;entryPerimeter=0;labelBackgroundColor=#F4F1DE;strokeColor=#E07A5F;fontColor=#393C56;" parent="1" source="JPFOaD2VGka_14Fi3roQ-17" target="JPFOaD2VGka_14Fi3roQ-29" edge="1"><mxGeometry width="50" height="50" relative="1" as="geometry"><mxPoint x="1170" y="470" as="sourcePoint"/><mxPoint x="1220" y="420" as="targetPoint"/></mxGeometry></mxCell><mxCell id="JPFOaD2VGka_14Fi3roQ-37" value="update move msg" style="text;html=1;align=center;verticalAlign=middle;resizable=0;points=[];autosize=1;strokeColor=none;fillColor=none;fontSize=12;fontColor=#393C56;" parent="1" vertex="1"><mxGeometry x="850" y="410" width="120" height="30" as="geometry"/></mxCell><mxCell id="JPFOaD2VGka_14Fi3roQ-38" value="" style="endArrow=classic;html=1;rounded=0;dashed=1;fontSize=12;exitX=1;exitY=0.5;exitDx=0;exitDy=0;entryX=0.949;entryY=0.727;entryDx=0;entryDy=0;entryPerimeter=0;labelBackgroundColor=#F4F1DE;strokeColor=#E07A5F;fontColor=#393C56;" parent="1" source="JPFOaD2VGka_14Fi3roQ-27" target="JPFOaD2VGka_14Fi3roQ-29" edge="1"><mxGeometry width="50" height="50" relative="1" as="geometry"><mxPoint x="1440" y="480" as="sourcePoint"/><mxPoint x="1610" y="230" as="targetPoint"/><Array as="points"><mxPoint x="1660" y="670"/><mxPoint x="1660" y="490"/><mxPoint x="1660" y="410"/><mxPoint x="1660" y="330"/><mxPoint x="1660" y="270"/></Array></mxGeometry></mxCell><mxCell id="JPFOaD2VGka_14Fi3roQ-39" value="end turn msg" style="text;html=1;align=center;verticalAlign=middle;resizable=0;points=[];autosize=1;strokeColor=none;fillColor=none;fontSize=12;fontColor=#393C56;" parent="1" vertex="1"><mxGeometry x="1420" y="240" width="90" height="30" as="geometry"/></mxCell><mxCell id="JPFOaD2VGka_14Fi3roQ-40" value="" style="endArrow=classic;html=1;rounded=0;fontSize=12;exitX=1;exitY=0.5;exitDx=0;exitDy=0;labelBackgroundColor=#F4F1DE;strokeColor=#E07A5F;fontColor=#393C56;" parent="1" source="JPFOaD2VGka_14Fi3roQ-26" edge="1"><mxGeometry width="50" height="50" relative="1" as="geometry"><mxPoint x="1710" y="490" as="sourcePoint"/><mxPoint x="1790" y="480" as="targetPoint"/></mxGeometry></mxCell><mxCell id="JPFOaD2VGka_14Fi3roQ-41" value="wait results" style="ellipse;whiteSpace=wrap;html=1;fontSize=12;fillColor=#F2CC8F;strokeColor=#E07A5F;fontColor=#393C56;" parent="1" vertex="1"><mxGeometry x="1790" y="440" width="120" height="80" as="geometry"/></mxCell><mxCell id="JPFOaD2VGka_14Fi3roQ-42" value="" style="endArrow=classic;html=1;rounded=0;fontSize=12;exitX=0.914;exitY=0.415;exitDx=0;exitDy=0;exitPerimeter=0;entryX=0.6;entryY=-0.025;entryDx=0;entryDy=0;entryPerimeter=0;dashed=1;labelBackgroundColor=#F4F1DE;strokeColor=#E07A5F;fontColor=#393C56;" parent="1" source="JPFOaD2VGka_14Fi3roQ-29" target="JPFOaD2VGka_14Fi3roQ-41" edge="1"><mxGeometry width="50" height="50" relative="1" as="geometry"><mxPoint x="1710" y="490" as="sourcePoint"/><mxPoint x="1760" y="440" as="targetPoint"/><Array as="points"><mxPoint x="1860" y="188"/></Array></mxGeometry></mxCell><mxCell id="JPFOaD2VGka_14Fi3roQ-43" value="result msg" style="text;html=1;align=center;verticalAlign=middle;resizable=0;points=[];autosize=1;strokeColor=none;fillColor=none;fontSize=12;fontColor=#393C56;" parent="1" vertex="1"><mxGeometry x="1410" y="160" width="80" height="30" as="geometry"/></mxCell><mxCell id="JPFOaD2VGka_14Fi3roQ-44" value="" style="endArrow=classic;html=1;rounded=0;dashed=1;fontSize=12;exitX=0.575;exitY=-0.05;exitDx=0;exitDy=0;entryX=0.727;entryY=0.892;entryDx=0;entryDy=0;entryPerimeter=0;exitPerimeter=0;labelBackgroundColor=#F4F1DE;strokeColor=#E07A5F;fontColor=#393C56;" parent="1" source="JPFOaD2VGka_14Fi3roQ-26" target="JPFOaD2VGka_14Fi3roQ-29" edge="1"><mxGeometry width="50" height="50" relative="1" as="geometry"><mxPoint x="1300" y="490" as="sourcePoint"/><mxPoint x="1090" y="380" as="targetPoint"/><Array as="points"><mxPoint x="1540" y="370"/><mxPoint x="1099" y="370"/></Array></mxGeometry></mxCell><mxCell id="JPFOaD2VGka_14Fi3roQ-45" value="end game msg" style="text;html=1;align=center;verticalAlign=middle;resizable=0;points=[];autosize=1;strokeColor=none;fillColor=none;fontSize=12;fontColor=#393C56;" parent="1" vertex="1"><mxGeometry x="1290" y="340" width="100" height="30" as="geometry"/></mxCell><mxCell id="JPFOaD2VGka_14Fi3roQ-46" value="" style="endArrow=classic;html=1;rounded=0;fontSize=12;exitX=1;exitY=0.5;exitDx=0;exitDy=0;labelBackgroundColor=#F4F1DE;strokeColor=#E07A5F;fontColor=#393C56;" parent="1" source="JPFOaD2VGka_14Fi3roQ-41" edge="1"><mxGeometry width="50" height="50" relative="1" as="geometry"><mxPoint x="1920" y="640" as="sourcePoint"/><mxPoint x="2060" y="480" as="targetPoint"/></mxGeometry></mxCell><mxCell id="JPFOaD2VGka_14Fi3roQ-48" value="display points" style="ellipse;whiteSpace=wrap;html=1;fontSize=12;fillColor=#F2CC8F;strokeColor=#E07A5F;fontColor=#393C56;" parent="1" vertex="1"><mxGeometry x="2060" y="445" width="120" height="80" as="geometry"/></mxCell><mxCell id="JPFOaD2VGka_14Fi3roQ-49" value="" style="endArrow=classic;html=1;rounded=0;fontSize=12;exitX=0.5;exitY=1;exitDx=0;exitDy=0;labelBackgroundColor=#F4F1DE;strokeColor=#E07A5F;fontColor=#393C56;" parent="1" source="JPFOaD2VGka_14Fi3roQ-48" edge="1"><mxGeometry width="50" height="50" relative="1" as="geometry"><mxPoint x="1920" y="640" as="sourcePoint"/><mxPoint x="2120" y="640" as="targetPoint"/></mxGeometry></mxCell><mxCell id="JPFOaD2VGka_14Fi3roQ-50" value="close client" style="ellipse;whiteSpace=wrap;html=1;fontSize=12;fillColor=#F2CC8F;strokeColor=#E07A5F;fontColor=#393C56;" parent="1" vertex="1"><mxGeometry x="2060" y="650" width="120" height="80" as="geometry"/></mxCell><mxCell id="JPFOaD2VGka_14Fi3roQ-52" value="wait timer" style="text;html=1;align=center;verticalAlign=middle;resizable=0;points=[];autosize=1;strokeColor=none;fillColor=none;fontSize=12;fontColor=#393C56;" parent="1" vertex="1"><mxGeometry x="2115" y="555" width="70" height="30" as="geometry"/></mxCell><mxCell id="2" value="" style="endArrow=classic;html=1;rounded=0;entryX=0.226;entryY=0.258;entryDx=0;entryDy=0;entryPerimeter=0;labelBackgroundColor=#F4F1DE;strokeColor=#E07A5F;fontColor=#393C56;" parent="1" target="JPFOaD2VGka_14Fi3roQ-29" edge="1"><mxGeometry width="50" height="50" relative="1" as="geometry"><mxPoint x="530" y="70" as="sourcePoint"/><mxPoint x="730" y="390" as="targetPoint"/></mxGeometry></mxCell><mxCell id="3" value="run server" style="text;html=1;align=center;verticalAlign=middle;resizable=0;points=[];autosize=1;strokeColor=none;fillColor=none;fontColor=#393C56;" parent="1" vertex="1"><mxGeometry x="600" y="65" width="80" height="30" as="geometry"/></mxCell><mxCell id="4" value="" style="endArrow=classic;html=1;rounded=0;exitX=1;exitY=0.5;exitDx=0;exitDy=0;entryX=0.707;entryY=0.158;entryDx=0;entryDy=0;entryPerimeter=0;dashed=1;labelBackgroundColor=#F4F1DE;strokeColor=#E07A5F;fontColor=#393C56;" parent="1" source="JPFOaD2VGka_14Fi3roQ-51" target="JPFOaD2VGka_14Fi3roQ-29" edge="1"><mxGeometry width="50" height="50" relative="1" as="geometry"><mxPoint x="1870" y="440" as="sourcePoint"/><mxPoint x="950" y="40" as="targetPoint"/><Array as="points"><mxPoint x="2320" y="690"/><mxPoint x="2320" y="80"/><mxPoint x="1700" y="80"/><mxPoint x="1085" y="80"/></Array></mxGeometry></mxCell><mxCell id="5" value="close game msg" style="text;html=1;align=center;verticalAlign=middle;resizable=0;points=[];autosize=1;strokeColor=none;fillColor=none;fontColor=#393C56;" parent="1" vertex="1"><mxGeometry x="1795" y="45" width="110" height="30" as="geometry"/></mxCell></root></mxGraphModel></diagram></mxfile>